<?xml version="1.0" encoding="iso-8859-1"?>
<!-- Generator: Adobe Illustrator 16.0.0, SVG Export Plug-In . SVG Version: 6.00 Build 0)  -->
<!DOCTYPE svg PUBLIC "-//W3C//DTD SVG 1.1//EN" "http://www.w3.org/Graphics/SVG/1.1/DTD/svg11.dtd">
<svg xmlns="http://www.w3.org/2000/svg" xmlns:xlink="http://www.w3.org/1999/xlink" version="1.1" id="Capa_1" x="0px" y="0px" width="512px" height="512px" viewBox="0 0 164.072 164.072" style="enable-background:new 0 0 164.072 164.072;" xml:space="preserve">
<g>
	<path d="M76.724,124.86c0,1.543-1.254,2.802-2.802,2.802H41.654c-1.542,0-2.802-1.259-2.802-2.802c0-1.544,1.26-2.802,2.802-2.802   h32.268C75.47,122.059,76.724,123.307,76.724,124.86z M143.04,92.63v58.562c0,8.46-15.488,12.881-30.785,12.881   c-15.294,0-30.774-4.421-30.774-12.881v-2.687H23.834c-1.541,0-2.802-1.259-2.802-2.802V26.17c0-1.548,1.261-2.801,2.802-2.801   h21.349v-6.777c0-1.546,1.256-2.802,2.802-2.802h10.221C58.271,6.175,64.487,0,72.108,0c7.629,0,13.855,6.175,13.911,13.79H96.25   c1.537,0,2.801,1.256,2.801,2.802v6.777h21.33c1.544,0,2.802,1.253,2.802,2.801v36.638c5.69,1.299,10.07,3.743,10.858,7.415   c0.151,0.347,0.249,0.728,0.249,1.131v12.037C141.41,86.317,143.04,89.971,143.04,92.63z M112.255,67.235   c-10.482,0-16.053,3.015-16.431,4.165v0.015c0.359,1.048,5.952,4.063,16.431,4.063c10.496,0,16.09-3.026,16.445-4.174   C128.345,70.261,122.762,67.235,112.255,67.235z M128.677,78.044c-4.301,2.033-10.45,3.037-16.427,3.037   c-5.976,0-12.126-1.004-16.438-3.037v6.886c0.033,0.274,0.046,0.553,0,0.816v0.776c0.351,1.094,5.934,4.126,16.438,4.126   c10.497,0,16.076-3.021,16.438-4.181L128.677,78.044z M50.78,31.418h42.668V19.393H82.854c-0.862,0-1.686-0.397-2.22-1.075   c-0.531-0.685-0.716-1.568-0.501-2.408c0.187-0.764,0.276-1.396,0.276-1.997c0-4.578-3.726-8.299-8.302-8.299   c-4.578,0-8.304,3.727-8.304,8.299c0,0.596,0.09,1.239,0.278,2.013c0.209,0.829,0.018,1.718-0.514,2.397   c-0.532,0.678-1.345,1.07-2.208,1.07H50.77L50.78,31.418L50.78,31.418z M90.222,83.397V71.358c0-0.402,0.103-0.783,0.249-1.13   c1.265-5.866,11.809-8.591,21.784-8.591c1.779,0,3.568,0.118,5.332,0.292V28.977H99.051v5.248c0,1.548-1.256,2.802-2.801,2.802   H47.978c-1.539,0-2.801-1.253-2.801-2.802v-5.248H26.636v113.93h54.828V92.625C81.464,89.96,83.105,86.305,90.222,83.397z    M87.067,135.521c0,2.418,8.427,6.707,22.381,7.223v-20.98c-8.679-0.306-17.073-2.046-22.381-5.122V135.521z M137.437,100.345   c-5.87,3.404-15.562,5.155-25.182,5.155c-9.623,0-19.298-1.751-25.171-5.155v8.592c0,2.562,9.554,7.278,25.171,7.278   c1.551,0,2.802,1.26,2.802,2.801v26.583c0,1.544-1.251,2.802-2.802,2.802c-9.623,0-19.298-1.751-25.171-5.155v7.946   c0,2.562,9.554,7.278,25.171,7.278c15.628,0,25.182-4.716,25.182-7.278V100.345z M137.437,92.63c0-0.624-0.907-1.992-3.885-3.446   c-2.604,4.814-12.214,7.08-21.297,7.08c-9.072,0-18.681-2.238-21.291-7.08c-2.772,1.368-3.88,2.714-3.88,3.446   c0,2.462,8.887,7.267,25.171,7.267C127.883,99.896,137.437,95.19,137.437,92.63z M73.922,100.761H41.654   c-1.542,0-2.802,1.26-2.802,2.805c0,1.541,1.26,2.8,2.802,2.8h32.268c1.548,0,2.802-1.259,2.802-2.8   C76.724,102.015,75.47,100.761,73.922,100.761z M105.368,57.588c0-1.549-1.261-2.802-2.802-2.802H41.654   c-1.542,0-2.802,1.253-2.802,2.802c0,1.546,1.26,2.802,2.802,2.802h60.913C104.107,60.39,105.368,59.134,105.368,57.588z    M41.654,83.374h31.439c1.553,0,2.801-1.256,2.801-2.801c0-1.548-1.249-2.802-2.801-2.802H41.654c-1.542,0-2.802,1.253-2.802,2.802   C38.852,82.118,40.112,83.374,41.654,83.374z" fill="#91DC5A"/>
</g>
<g>
</g>
<g>
</g>
<g>
</g>
<g>
</g>
<g>
</g>
<g>
</g>
<g>
</g>
<g>
</g>
<g>
</g>
<g>
</g>
<g>
</g>
<g>
</g>
<g>
</g>
<g>
</g>
<g>
</g>
</svg>
